<?xml version="1.0" encoding="utf-8"?>
<!-- Generator: Adobe Illustrator 24.0.2, SVG Export Plug-In . SVG Version: 6.00 Build 0)  -->
<svg version="1.1" id="Capa_1" xmlns="http://www.w3.org/2000/svg" xmlns:xlink="http://www.w3.org/1999/xlink" x="0px" y="0px"
	 viewBox="0 0 100 97.9" style="enable-background:new 0 0 100 97.9;" xml:space="preserve">
<style type="text/css">
	.st0{fill:none;}
	.st1{fill:#FFFFFF;}
	.st2{fill:#F9F7F7;}
</style>
<rect id="backgroundrect" class="st0" width="100" height="97.9"/>
<g>
	<title>Layer 1</title>
	<path id="svg_1" class="st1" d="M10,10l6.7,73.3L50,90l33.3-6.7L90,10H10z M77.1,77.8L50,83.2l-27.1-5.4l-5.6-61.1h65.4L77.1,77.8z
		"/>
	<polygon id="svg_2" class="st2" points="27.3,53.3 66,53.3 64.8,66.7 50,69.6 35.2,66.7 34.6,60 27.9,60 29,72.2 50,76.4 71,72.2 
		73.3,46.7 33.4,46.7 31.9,30 74.8,30 75.4,23.3 24.6,23.3 	"/>
	<text id="svg_3" transform="matrix(1 0 0 1 0 115)" style="font-family:'Arial-BoldMT'; font-size:5px;">Created by Danil Polshin</text>
	<text id="svg_4" transform="matrix(1 0 0 1 0 120)" style="font-family:'Arial-BoldMT'; font-size:5px;">from the Noun Project</text>
</g>
</svg>
