<svg xmlns="http://www.w3.org/2000/svg" xmlns:xlink="http://www.w3.org/1999/xlink" version="1.1" enable-background="new 0 0 100 100" xml:space="preserve" width="110.16949095009593" height="101.27118778310944" style=""><rect id="backgroundrect" width="100%" height="100%" x="0" y="0" fill="none" stroke="none" class="selected" style=""/><g class="currentLayer" style=""><title>Layer 1</title><g id="svg_1"><g id="svg_2"><polygon fill="none" stroke="#000000" stroke-width="4" stroke-linejoin="round" stroke-miterlimit="10" points="18.96,11.204     18.96,88.796 81.04,88.796 81.04,24.543 67.7,11.204   " id="svg_3"/><polygon fill="none" stroke="#000000" stroke-width="4" stroke-linejoin="round" stroke-miterlimit="10" points="67.7,11.204     81.04,24.543 67.7,24.543   " id="svg_4"/></g></g><g id="svg_5"><g id="svg_6"><g id="svg_7"><path d="M31.855,62.042h3.344V41.297h-3.344v-3.116h10.525v3.116H39V61.89h9.346v-4.331h3.344v7.447H31.855V62.042z" id="svg_8"/><path d="M54.656,62.156h2.887v-12.69c0-0.57-0.303-0.836-0.836-0.836h-2.393v-2.85h4.33c1.672,0,2.471,0.684,2.471,2.242v1.216     c0,0.76-0.076,1.33-0.076,1.33h0.076c0.873-2.812,3.115-5.015,6.078-5.015c0.494,0,0.951,0.076,0.951,0.076v3.647     c0,0-0.457-0.114-1.064-0.114c-4.104,0-5.852,4.142-5.852,7.903v5.091h2.85v2.85h-9.422V62.156z" id="svg_9"/></g></g></g><text x="0" y="115" fill="#000000" font-size="5px" font-weight="bold" font-family="'Helvetica Neue', Helvetica, Arial-Unicode, Arial, Sans-serif" id="svg_10">Created by Linseed Studio</text><text x="0" y="120" fill="#000000" font-size="5px" font-weight="bold" font-family="'Helvetica Neue', Helvetica, Arial-Unicode, Arial, Sans-serif" id="svg_11">from the Noun Project</text></g></svg>