<svg xmlns="http://www.w3.org/2000/svg" xmlns:xlink="http://www.w3.org/1999/xlink" version="1.1" x="0px" y="0px" viewBox="0 0 100 125" enable-background="new 0 0 100 100" xml:space="preserve"><g><g><polygon fill="none" stroke="#000000" stroke-width="4" stroke-linejoin="round" stroke-miterlimit="10" points="18.96,11.204     18.96,88.796 81.04,88.796 81.04,24.543 67.7,11.204   "/><polygon fill="none" stroke="#000000" stroke-width="4" stroke-linejoin="round" stroke-miterlimit="10" points="67.7,11.204     81.04,24.543 67.7,24.543   "/></g></g><g><g><g><path d="M31.855,62.042h3.344V41.297h-3.344v-3.116h10.525v3.116H39V61.89h9.346v-4.331h3.344v7.447H31.855V62.042z"/><path d="M54.656,62.156h2.887v-12.69c0-0.57-0.303-0.836-0.836-0.836h-2.393v-2.85h4.33c1.672,0,2.471,0.684,2.471,2.242v1.216     c0,0.76-0.076,1.33-0.076,1.33h0.076c0.873-2.812,3.115-5.015,6.078-5.015c0.494,0,0.951,0.076,0.951,0.076v3.647     c0,0-0.457-0.114-1.064-0.114c-4.104,0-5.852,4.142-5.852,7.903v5.091h2.85v2.85h-9.422V62.156z"/></g></g></g><text x="0" y="115" fill="#000000" font-size="5px" font-weight="bold" font-family="'Helvetica Neue', Helvetica, Arial-Unicode, Arial, Sans-serif">Created by Linseed Studio</text><text x="0" y="120" fill="#000000" font-size="5px" font-weight="bold" font-family="'Helvetica Neue', Helvetica, Arial-Unicode, Arial, Sans-serif">from the Noun Project</text></svg>