<?xml version="1.0" encoding="utf-8"?>
<!-- Generator: Adobe Illustrator 24.0.2, SVG Export Plug-In . SVG Version: 6.00 Build 0)  -->
<svg version="1.1" id="Capa_1" xmlns="http://www.w3.org/2000/svg" xmlns:xlink="http://www.w3.org/1999/xlink" x="0px" y="0px"
	 viewBox="0 0 100 125" style="enable-background:new 0 0 100 125;" xml:space="preserve">
<style type="text/css">
	.st0{fill:#FFFFFF;}
	.st1{font-family:'Arial-BoldMT';}
	.st2{font-size:5px;}
</style>
<path class="st0" d="M10,10l6.7,73.3L50,90l33.3-6.7L90,10H10z M77.1,77.8L50,83.2l-27.1-5.4l-5.6-61.1h65.4L77.1,77.8z"/>
<polygon class="st0" points="27.3,53.3 66,53.3 64.8,66.7 50,69.6 35.2,66.7 34.6,60 27.9,60 29,72.2 50,76.4 71,72.2 73.3,46.7 
	33.4,46.7 31.9,30 74.8,30 75.4,23.3 24.6,23.3 "/>
<text transform="matrix(1 0 0 1 0 115)" class="st0 st1 st2">Created by Danil Polshin</text>
<text transform="matrix(1 0 0 1 0 120)" class="st0 st1 st2">from the Noun Project</text>
</svg>
