<svg xmlns="http://www.w3.org/2000/svg" xmlns:xlink="http://www.w3.org/1999/xlink" version="1.1" x="0px" y="0px" viewBox="0 0 100 125" enable-background="new 0 0 100 100" xml:space="preserve"><g><g><polygon fill="none" stroke="#000000" stroke-width="4" stroke-linejoin="round" stroke-miterlimit="10" points="18.96,11.204     18.96,88.796 81.04,88.796 81.04,24.543 67.701,11.204   "/><polygon fill="none" stroke="#000000" stroke-width="4" stroke-linejoin="round" stroke-miterlimit="10" points="67.701,11.204     81.04,24.543 67.701,24.543   "/></g></g><g><g><path d="M30.317,60.221h3.344V39.286h-3.344V36.36h12.5c1.634,0,3.268,0.114,4.598,0.722c2.773,1.178,4.559,4.027,4.559,7.599    c0,3.762-1.976,6.801-5.053,7.865c-1.254,0.456-2.545,0.57-4.027,0.57H37.46v7.105h3.381v2.963H30.317V60.221z M42.437,50    c1.216,0,2.166-0.19,3.001-0.532c1.71-0.76,2.698-2.47,2.698-4.788c0-2.166-0.874-3.761-2.394-4.559    c-0.836-0.456-1.976-0.646-3.268-0.646H37.46V50H42.437z"/><path d="M54.448,56.991h3.229v1.253c0,1.634,2.279,2.394,4.407,2.394c2.166,0,3.875-0.874,3.875-2.47    c0-1.938-2.128-2.546-4.788-3.496c-2.85-1.064-6.003-2.355-6.003-5.851c0-3.799,3.761-5.319,7.105-5.319    c2.698,0,6.649,1.064,6.649,3.875v2.318h-3.229v-1.254c0-1.178-1.52-1.976-3.381-1.976c-1.824,0-3.419,0.76-3.419,2.318    c0,1.824,2.127,2.583,4.445,3.381c2.963,0.988,6.345,2.242,6.345,5.813c0,3.647-3.343,5.661-7.713,5.661    c-3.495,0-7.522-1.558-7.522-4.598V56.991z"/></g></g><text x="0" y="115" fill="#000000" font-size="5px" font-weight="bold" font-family="'Helvetica Neue', Helvetica, Arial-Unicode, Arial, Sans-serif">Created by Linseed Studio</text><text x="0" y="120" fill="#000000" font-size="5px" font-weight="bold" font-family="'Helvetica Neue', Helvetica, Arial-Unicode, Arial, Sans-serif">from the Noun Project</text></svg>