<?xml version="1.0" encoding="utf-8"?>
<!-- Generator: Adobe Illustrator 24.0.2, SVG Export Plug-In . SVG Version: 6.00 Build 0)  -->
<svg version="1.1" id="Layer_1" xmlns="http://www.w3.org/2000/svg" xmlns:xlink="http://www.w3.org/1999/xlink" x="0px" y="0px"
	 viewBox="0 0 30.6 34.2" style="enable-background:new 0 0 30.6 34.2;" xml:space="preserve">
<style type="text/css">
	.st0{fill:#FFFFFF;}
	.st1{fill:none;}
	.st2{font-family:'ArialMT';}
	.st3{font-size:6px;}
</style>
<title>file format document</title>
<path class="st0" d="M27.4,7.6l-6-6c-0.1-0.1-0.2-0.2-0.4-0.2H6.4c-1.1,0-1.9,0.9-1.9,1.9V13c0,0.3,0.2,0.5,0.5,0.5s0.5-0.2,0.5-0.5
	V3.4c0-0.5,0.4-0.9,0.9-0.9h14.1V8c0,0.3,0.2,0.5,0.5,0.5h5.5v20.1c0,0.5-0.4,0.9-0.9,0.9l0,0H6.4c-0.5,0-0.9-0.4-0.9-0.9l0,0V26
	c0-0.3-0.2-0.5-0.5-0.5S4.5,25.7,4.5,26v2.6c0,1.1,0.9,1.9,1.9,1.9h19.1c1.1,0,1.9-0.9,1.9-1.9V8C27.5,7.9,27.4,7.7,27.4,7.6z
	 M21.5,3.2l4.3,4.3h-4.3V3.2z"/>
<rect x="3.3" y="17" class="st1" width="19.4" height="5.9"/>
<text transform="matrix(1 0 0 1 4.0002 21.7179)" class="st0 st2 st3">UNITY </text>
</svg>
